<svg width="32" height="32" viewBox="0 0 32 32" fill="none" xmlns="http://www.w3.org/2000/svg">
<path d="M16 12.76C13.8667 12.76 11.8 13.0933 9.86667 13.72V17.8533C9.86667 18.3733 9.56 18.84 9.12 19.0533C7.81333 19.7067 6.62667 20.5467 5.57333 21.52C5.33333 21.76 5 21.8933 4.64 21.8933C4.26667 21.8933 3.93333 21.7467 3.69333 21.5067L0.386667 18.2C0.146667 17.9733 0 17.64 0 17.2667C0 16.8933 0.146667 16.56 0.386667 16.32C4.45333 12.4667 9.94667 10.0933 16 10.0933C22.0533 10.0933 27.5467 12.4667 31.6133 16.32C31.8533 16.56 32 16.8933 32 17.2667C32 17.64 31.8533 17.9733 31.6133 18.2133L28.3067 21.52C28.0667 21.76 27.7333 21.9067 27.36 21.9067C27 21.9067 26.6667 21.76 26.4267 21.5333C25.3733 20.5467 24.1733 19.72 22.8667 19.0667C22.4267 18.8533 22.12 18.4 22.12 17.8667V13.7333C20.2 13.0933 18.1333 12.76 16 12.76Z" fill="white"/>
</svg>
