<svg width="24" height="26" viewBox="0 0 24 26" fill="none" xmlns="http://www.w3.org/2000/svg">
<path d="M21.3333 12.3333H19.0667C19.0667 13.3199 18.8533 14.2399 18.4933 15.0666L20.1333 16.7066C20.88 15.3999 21.3333 13.9199 21.3333 12.3333ZM15.9733 12.5599C15.9733 12.4799 16 12.4133 16 12.3333V4.33325C16 2.11992 14.2133 0.333252 12 0.333252C9.78667 0.333252 8 2.11992 8 4.33325V4.57325L15.9733 12.5599ZM1.69333 1.66659L0 3.35992L8.01333 11.3733V12.3333C8.01333 14.5466 9.78667 16.3333 12 16.3333C12.2933 16.3333 12.5867 16.2933 12.8667 16.2266L15.08 18.4399C14.1333 18.8799 13.08 19.1333 12 19.1333C8.32 19.1333 4.93333 16.3333 4.93333 12.3333H2.66667C2.66667 16.8799 6.29333 20.6399 10.6667 21.2933V25.6666H13.3333V21.2933C14.5467 21.1199 15.6933 20.6933 16.72 20.0933L22.3067 25.6666L24 23.9733L1.69333 1.66659Z" fill="white"/>
</svg>
