<?xml version="1.0" encoding="UTF-8"?>
<svg width="28px" height="28px" viewBox="0 0 28 28" version="1.1" xmlns="http://www.w3.org/2000/svg" xmlns:xlink="http://www.w3.org/1999/xlink">
    <title>97D48639-6592-476B-8CB8-0A4AC684BD9C</title>
    <g id="Cross-platform" stroke="none" stroke-width="1" fill="none" fill-rule="evenodd">
        <g id="Chat-info" transform="translate(-336.000000, -28.000000)">
            <g id="Nav-bar" transform="translate(0.000000, 20.000000)">
                <g id="Right" transform="translate(255.000000, 0.000000)">
                    <g id="add-user" transform="translate(81.000000, 8.000000)">
                        <rect id="Rectangle-Copy" fill-rule="nonzero" x="0" y="0" width="28" height="28"></rect>
                        <path d="M10.4444444,4 L10.5555556,4 C13.0101544,4 15,5.98984556 15,8.44444444 L15,8.55555556 C15,11.0101544 13.0101544,13 10.5555556,13 L10.4444444,13 C7.98984556,13 6,11.0101544 6,8.55555556 L6,8.44444444 C6,5.98984556 7.98984556,4 10.4444444,4 Z" id="Rectangle" stroke="#FFFFFF" stroke-width="2" fill-opacity="0.35" fill="#FFFFFF" stroke-linejoin="round"></path>
                        <path d="M18,17 L18,17.5 C18,21.6421356 14.6421356,25 10.5,25 C6.35786438,25 3,21.6421356 3,17.5 L3,17 L3,17" id="Rectangle-Copy-2" stroke="#FFFFFF" stroke-width="2" stroke-linecap="round" stroke-linejoin="round" transform="translate(10.500000, 21.000000) rotate(-180.000000) translate(-10.500000, -21.000000) "></path>
                        <line x1="23" y1="11.2158666" x2="23" y2="18.9588686" id="Path-149" stroke="#FFFFFF" stroke-width="2" stroke-linecap="round" stroke-linejoin="round"></line>
                        <line x1="23" y1="11.2158666" x2="23" y2="18.9588686" id="Path-149-Copy" stroke="#FFFFFF" stroke-width="2" stroke-linecap="round" stroke-linejoin="round" transform="translate(23.000000, 15.000000) rotate(-270.000000) translate(-23.000000, -15.000000) "></line>
                    </g>
                </g>
            </g>
        </g>
    </g>
</svg>