<?xml version="1.0" encoding="UTF-8"?>
<svg width="28px" height="28px" viewBox="0 0 28 28" version="1.1" xmlns="http://www.w3.org/2000/svg" xmlns:xlink="http://www.w3.org/1999/xlink">
    <title>D4922CB7-D8F4-4442-9AF1-801DCA3E241B</title>
    <g id="Cross-platform" stroke="none" stroke-width="1" fill="none" fill-rule="evenodd">
        <g id="Chats" transform="translate(-11.000000, -28.000000)">
            <g id="Nav-bar" transform="translate(0.000000, 20.000000)">
                <g id="exit" transform="translate(11.000000, 8.000000)">
                    <rect id="Rectangle-Copy" fill-rule="nonzero" x="0" y="0" width="28" height="28"></rect>
                    <path d="M21.5,7.5 L21.5,13.3 L21.5,18.1 C21.5,19.4254834 20.8669346,20.5 18.5,20.5 L4.5,20.5 C2.13306536,20.5 1.5,19.4254834 1.5,18.1 L1.5,7.5" id="Rectangle" stroke="#FFFFFF" stroke-width="2" stroke-linecap="round" transform="translate(11.500000, 14.000000) rotate(-270.000000) translate(-11.500000, -14.000000) "></path>
                    <line x1="23" y1="14" x2="13" y2="14" id="Path-3" stroke="#FFFFFF" stroke-width="2" stroke-linecap="round"></line>
                    <path d="M18,10 L12.5194255,13.1317569 C12.0399081,13.4057668 11.8733113,14.0166215 12.1473213,14.4961389 C12.2359106,14.6511702 12.3643942,14.7796538 12.5194255,14.8682431 L18,18 L18,18" id="Path-4" stroke="#FFFFFF" stroke-width="2" stroke-linecap="round"></path>
                </g>
            </g>
        </g>
    </g>
</svg>