<?xml version="1.0" encoding="UTF-8" standalone="no"?>
<svg
   xmlns:dc="http://purl.org/dc/elements/1.1/"
   xmlns:cc="http://creativecommons.org/ns#"
   xmlns:rdf="http://www.w3.org/1999/02/22-rdf-syntax-ns#"
   xmlns:svg="http://www.w3.org/2000/svg"
   xmlns="http://www.w3.org/2000/svg"
   viewBox="0 0 161.33333 32"
   height="32"
   width="161.33333"
   xml:space="preserve"
   id="svg2"
   version="1.1"><metadata
     id="metadata8"><rdf:RDF><cc:Work
         rdf:about=""><dc:format>image/svg+xml</dc:format><dc:type
           rdf:resource="http://purl.org/dc/dcmitype/StillImage" /></cc:Work></rdf:RDF></metadata><defs
     id="defs6"><clipPath
       id="clipPath20"
       clipPathUnits="userSpaceOnUse"><path
         id="path18"
         d="m 232,80 c 4.418,0 8,-3.582 8,-8 V 8 c 0,-4.41797 -3.582,-8 -8,-8 h -64 c -4.418,0 -8,3.58203 -8,8 v 64 c 0,4.418 3.582,8 8,8 z M 52,80 c 4.418,0 8,-3.582 8,-8 V 28 c 0,-4.418 -3.582,-8 -8,-8 H 8 c -4.41797,0 -8,3.582 -8,8 v 44 c 0,4.418 3.58203,8 8,8 z m 80,0 c 4.418,0 8,-3.582 8,-8 V 28 c 0,-4.418 -3.582,-8 -8,-8 H 88 c -4.418,0 -8,3.582 -8,8 v 44 c 0,4.418 3.582,8 8,8 z m 211.68,95.121 c 6.16,0 11.941,-1.16 17.34,-3.48 5.402,-2.321 10.121,-5.5 14.16,-9.539 4.039,-4.043 7.218,-8.762 9.539,-14.161 2.32,-5.402 3.48,-11.179 3.48,-17.339 0,-5.122 -0.82,-9.961 -2.461,-14.524 -1.636,-4.558 -3.859,-8.719 -6.66,-12.476 l 7.32,-7.3207 -8.277,-8.2813 -7.32,7.3203 c -3.84,-2.8789 -8.039,-5.1406 -12.602,-6.7812 -4.558,-1.6407 -9.398,-2.461 -14.519,-2.461 -6.16,0 -11.942,1.1602 -17.34,3.4805 -5.399,2.3203 -10.121,5.5 -14.16,9.543 -4.039,4.0394 -7.219,8.7574 -9.539,14.1604 -2.321,5.398 -3.481,11.179 -3.481,17.34 0,6.16 1.16,11.937 3.481,17.339 2.32,5.399 5.5,10.118 9.539,14.161 4.039,4.039 8.761,7.218 14.16,9.539 5.398,2.32 11.18,3.48 17.34,3.48 z m 95.398,-1.922 V 121.84 c 0,-3.281 0.621,-6.36 1.863,-9.238 1.239,-2.883 2.938,-5.403 5.098,-7.563 2.16,-2.16 4.68,-3.859 7.563,-5.0976 2.878,-1.2422 5.957,-1.8633 9.238,-1.8633 3.281,0 6.359,0.6211 9.238,1.8633 2.883,1.2386 5.402,2.9376 7.563,5.0976 2.16,2.16 3.859,4.68 5.097,7.563 1.242,2.878 1.864,5.957 1.864,9.238 v 51.359 h 12 V 121.84 c 0,-4.961 -0.942,-9.602 -2.821,-13.918 -1.883,-4.32 -4.441,-8.1017 -7.679,-11.3439 -3.243,-3.2383 -7.043,-5.7968 -11.403,-7.6797 -4.359,-1.8789 -8.98,-2.8203 -13.859,-2.8203 -4.961,0 -9.602,0.9414 -13.918,2.8203 -4.32,1.8829 -8.102,4.4414 -11.344,7.6797 -3.238,3.2422 -5.797,7.0239 -7.68,11.3439 -1.878,4.316 -2.82,8.957 -2.82,13.918 v 51.359 z m 200.402,1.922 c 6.079,0 11.739,-1.121 16.981,-3.359 5.238,-2.242 9.898,-5.321 13.98,-9.242 L 662.039,154 c -2.961,2.801 -6.359,5.02 -10.199,6.66 -3.84,1.641 -7.961,2.461 -12.36,2.461 -4.48,0 -8.699,-0.859 -12.66,-2.582 -3.961,-1.719 -7.422,-4.039 -10.379,-6.961 -2.961,-2.918 -5.281,-6.359 -6.961,-10.316 -1.679,-3.961 -2.519,-8.184 -2.519,-12.66 0,-4.481 0.84,-8.704 2.519,-12.661 1.68,-3.961 4,-7.421 6.961,-10.382 2.957,-2.957 6.418,-5.278 10.379,-6.957 3.961,-1.6801 8.18,-2.5239 12.66,-2.5239 4.399,0 8.52,0.8203 12.36,2.4609 3.84,1.641 7.238,3.859 10.199,6.66 l 8.402,-8.5193 c -4.082,-3.918 -8.761,-7 -14.043,-9.2383 -5.277,-2.2422 -10.918,-3.3633 -16.918,-3.3633 -6.16,0 -11.941,1.1602 -17.339,3.4805 -5.403,2.3203 -10.121,5.5 -14.161,9.543 -4.039,4.0394 -7.218,8.7574 -9.539,14.1604 -2.32,5.398 -3.48,11.179 -3.48,17.34 0,6.16 1.16,11.937 3.48,17.339 2.321,5.399 5.5,10.118 9.539,14.161 4.04,4.039 8.758,7.218 14.161,9.539 5.398,2.32 11.179,3.48 17.339,3.48 z m 417.84,0 c 6.16,0 11.94,-1.16 17.34,-3.48 5.4,-2.321 10.12,-5.5 14.16,-9.539 4.04,-4.043 7.22,-8.762 9.54,-14.161 2.32,-5.402 3.48,-11.179 3.48,-17.339 0,-6.161 -1.16,-11.942 -3.48,-17.34 -2.32,-5.403 -5.5,-10.121 -9.54,-14.1604 -4.04,-4.043 -8.76,-7.2227 -14.16,-9.543 -5.4,-2.3203 -11.18,-3.4805 -17.34,-3.4805 -6.16,0 -11.94,1.1602 -17.34,3.4805 -5.4,2.3203 -10.12,5.5 -14.16,9.543 -4.04,4.0394 -7.22,8.7574 -9.54,14.1604 -2.32,5.398 -3.48,11.179 -3.48,17.34 0,6.16 1.16,11.937 3.48,17.339 2.32,5.399 5.5,10.118 9.54,14.161 4.04,4.039 8.76,7.218 14.16,9.539 5.4,2.32 11.18,3.48 17.34,3.48 z M 555,173.199 V 88 h -12 v 85.199 z m 165.359,0 v -39 l 38.282,39 h 16.8 l -35.281,-36 L 775.441,88 h -14.882 l -28.797,40.559 -11.403,-11.637 V 88 h -12 v 85.199 z m 133.563,0 c 3.359,0 6.519,-0.64 9.476,-1.918 2.961,-1.281 5.543,-3.019 7.743,-5.222 2.199,-2.2 3.937,-4.778 5.218,-7.739 1.282,-2.961 1.922,-6.121 1.922,-9.48 0,-3.121 -0.562,-6.059 -1.679,-8.82 -1.122,-2.758 -2.641,-5.219 -4.563,-7.379 3.359,-2.161 6.063,-5.02 8.102,-8.582 2.039,-3.559 3.058,-7.5 3.058,-11.821 0,-3.359 -0.64,-6.519 -1.918,-9.476 -1.281,-2.9612 -3.019,-5.5237 -5.222,-7.6839 -2.2,-2.1562 -4.778,-3.8789 -7.739,-5.1562 C 865.359,88.6406 862.199,88 858.84,88 h -47.762 v 85.199 z m 81.359,0 V 100 H 985.68 V 88 h -62.399 v 85.199 z m 208.199,0 22.08,-32.16 22.08,32.16 h 14.4 L 1172.76,130.602 1202.04,88 h -14.4 L 1165.56,120.039 1143.48,88 h -14.4 l 29.28,42.602 -29.28,42.597 z m -799.8,-10.078 c -4.481,0 -8.7,-0.859 -12.66,-2.582 -3.961,-1.719 -7.418,-4.039 -10.379,-6.961 -2.961,-2.918 -5.282,-6.359 -6.961,-10.316 -1.68,-3.961 -2.52,-8.184 -2.52,-12.66 0,-4.481 0.84,-8.704 2.52,-12.661 1.679,-3.961 4,-7.421 6.961,-10.382 2.961,-2.957 6.418,-5.278 10.379,-6.957 3.96,-1.6801 8.179,-2.5239 12.66,-2.5239 3.441,0 6.718,0.5 9.84,1.5 3.121,0.9999 6,2.4219 8.64,4.2619 l -7.199,7.32 8.16,8.281 7.32,-7.32 c 1.84,2.559 3.258,5.399 4.258,8.52 1,3.121 1.5,6.437 1.5,9.961 0,4.476 -0.859,8.699 -2.578,12.66 -1.723,3.957 -4.043,7.398 -6.961,10.316 -2.922,2.922 -6.359,5.242 -10.32,6.961 -3.961,1.723 -8.18,2.582 -12.66,2.582 z m 713.64,0 c -4.48,0 -8.7,-0.859 -12.66,-2.582 -3.96,-1.719 -7.42,-4.039 -10.38,-6.961 -2.96,-2.918 -5.28,-6.359 -6.96,-10.316 -1.68,-3.961 -2.52,-8.184 -2.52,-12.66 0,-4.481 0.84,-8.704 2.52,-12.661 1.68,-3.961 4,-7.421 6.96,-10.382 2.96,-2.957 6.42,-5.278 10.38,-6.957 3.96,-1.6801 8.18,-2.5239 12.66,-2.5239 4.48,0 8.7,0.8438 12.66,2.5239 3.96,1.679 7.4,4 10.32,6.957 2.92,2.961 5.24,6.421 6.96,10.382 1.72,3.957 2.58,8.18 2.58,12.661 0,4.476 -0.86,8.699 -2.58,12.66 -1.72,3.957 -4.04,7.398 -6.96,10.316 -2.92,2.922 -6.36,5.242 -10.32,6.961 -3.96,1.723 -8.18,2.582 -12.66,2.582 z M 858.84,124.602 H 823.078 V 100 h 35.762 c 1.68,0 3.281,0.32 4.801,0.961 1.519,0.641 2.839,1.5 3.961,2.578 1.117,1.082 2,2.383 2.636,3.902 0.641,1.52 0.961,3.118 0.961,4.797 0,1.684 -0.32,3.282 -0.961,4.801 -0.636,1.52 -1.519,2.84 -2.636,3.961 -1.122,1.121 -2.442,2 -3.961,2.641 -1.52,0.64 -3.121,0.961 -4.801,0.961 z M 212,160 c 4.418,0 8,-3.582 8,-8 v -44 c 0,-4.418 -3.582,-8 -8,-8 h -44 c -4.418,0 -8,3.582 -8,8 v 44 c 0,4.418 3.582,8 8,8 z m -160,0 c 4.418,0 8,-3.582 8,-8 v -44 c 0,-4.418 -3.582,-8 -8,-8 H 8 c -4.41797,0 -8,3.582 -8,8 v 44 c 0,4.418 3.58203,8 8,8 z m 801.922,1.199 h -30.844 v -24.597 h 30.844 c 1.68,0 3.277,0.32 4.797,0.957 1.519,0.64 2.84,1.5 3.961,2.582 1.121,1.078 2,2.379 2.64,3.898 0.641,1.52 0.961,3.121 0.961,4.801 0,1.68 -0.32,3.281 -0.961,4.801 -0.64,1.519 -1.519,2.839 -2.64,3.961 -1.121,1.117 -2.442,2 -3.961,2.636 -1.52,0.641 -3.117,0.961 -4.797,0.961 z M 212,240 c 4.418,0 8,-3.582 8,-8 v -44 c 0,-4.418 -3.582,-8 -8,-8 h -44 c -4.418,0 -8,3.582 -8,8 v 44 c 0,4.418 3.582,8 8,8 z m -80,0 c 4.418,0 8,-3.582 8,-8 v -44 c 0,-4.418 -3.582,-8 -8,-8 H 88 c -4.418,0 -8,3.582 -8,8 v 44 c 0,4.418 3.582,8 8,8 z m -80,0 c 4.418,0 8,-3.582 8,-8 v -44 c 0,-4.418 -3.582,-8 -8,-8 H 8 c -4.41797,0 -8,3.582 -8,8 v 44 c 0,4.418 3.58203,8 8,8 z" /></clipPath><clipPath
       id="clipPath26"
       clipPathUnits="userSpaceOnUse"><path
         id="path24"
         d="M 0,0 H 1210 V 240 H 0 Z" /></clipPath></defs><g
     transform="matrix(1.3333333,0,0,-1.3333333,0,32)"
     id="g10"><g
       transform="scale(0.1)"
       id="g12"><g
         id="g14"><g
           clip-path="url(#clipPath20)"
           id="g16"><g
             clip-path="url(#clipPath26)"
             id="g22"><path
               id="path28"
               style="fill:#3576fe;fill-opacity:1;fill-rule:nonzero;stroke:none"
               d="M 0,0 H 1252.04 V 290 H 0 Z" /></g></g></g></g></g></svg>