<?xml version="1.0" encoding="UTF-8"?>
<svg width="99px" height="99px" viewBox="0 0 99 99" version="1.1" xmlns="http://www.w3.org/2000/svg" xmlns:xlink="http://www.w3.org/1999/xlink">
    <title>05AF3104-ED3E-493E-B542-E47D9BA155CE@1x</title>
    <g id="Cross-platform" stroke="none" stroke-width="1" fill="none" fill-rule="evenodd">
        <g id="Splashscreen" transform="translate(-142.000000, -280.000000)" fill="#FFFFFF">
            <g id="logo_qb-3" transform="translate(142.000000, 280.000000)">
                <path d="M96,66 C97.6568542,66 99,67.3431458 99,69 L99,96 C99,97.6568542 97.6568542,99 96,99 L69,99 C67.3431458,99 66,97.6568542 66,96 L66,69 C66,67.3431458 67.3431458,66 69,66 L96,66 Z M22,66 C23.6568542,66 25,67.3431458 25,69 L25,88 C25,89.6568542 23.6568542,91 22,91 L3,91 C1.34314575,91 2.02906125e-16,89.6568542 0,88 L0,69 C-2.02906125e-16,67.3431458 1.34314575,66 3,66 L22,66 Z M55,66 C56.6568542,66 58,67.3431458 58,69 L58,88 C58,89.6568542 56.6568542,91 55,91 L36,91 C34.3431458,91 33,89.6568542 33,88 L33,69 C33,67.3431458 34.3431458,66 36,66 L55,66 Z M88,33 C89.6568542,33 91,34.3431458 91,36 L91,55 C91,56.6568542 89.6568542,58 88,58 L69,58 C67.3431458,58 66,56.6568542 66,55 L66,36 C66,34.3431458 67.3431458,33 69,33 L88,33 Z M22,33 C23.6568542,33 25,34.3431458 25,36 L25,55 C25,56.6568542 23.6568542,58 22,58 L3,58 C1.34314575,58 2.02906125e-16,56.6568542 0,55 L0,36 C-2.02906125e-16,34.3431458 1.34314575,33 3,33 L22,33 Z M88,0 C89.6568542,-3.04359188e-16 91,1.34314575 91,3 L91,22 C91,23.6568542 89.6568542,25 88,25 L69,25 C67.3431458,25 66,23.6568542 66,22 L66,3 C66,1.34314575 67.3431458,3.04359188e-16 69,0 L88,0 Z M55,0 C56.6568542,-3.04359188e-16 58,1.34314575 58,3 L58,22 C58,23.6568542 56.6568542,25 55,25 L36,25 C34.3431458,25 33,23.6568542 33,22 L33,3 C33,1.34314575 34.3431458,3.04359188e-16 36,0 L55,0 Z M22,0 C23.6568542,-3.04359188e-16 25,1.34314575 25,3 L25,22 C25,23.6568542 23.6568542,25 22,25 L3,25 C1.34314575,25 2.02906125e-16,23.6568542 0,22 L0,3 C-2.02906125e-16,1.34314575 1.34314575,3.04359188e-16 3,0 L22,0 Z" id="Combined-Shape"></path>
            </g>
        </g>
    </g>
</svg>